<mxfile host="app.diagrams.net" modified="2024-04-25T00:12:55.519Z" agent="Mozilla/5.0 (Windows NT 10.0; Win64; x64; rv:125.0) Gecko/20100101 Firefox/125.0" version="24.2.8" etag="kbbtdFvlaeqnmHPC4G8x" type="github">
  <diagram name="Page-1" id="aVVQKkPVlQCNSV9PSbB4">
    <mxGraphModel>
      <root>
        <mxCell id="0" />
        <mxCell id="1" parent="0" />
      </root>
    </mxGraphModel>
  </diagram>
</mxfile>
